<svg xmlns="http://www.w3.org/2000/svg" width="113" height="113" fill="none"><path fill="#000" fill-rule="evenodd" d="M51.345 6.75c-2.598 3.712-5.064 7.146-5.48 7.63-.416.483-4.39-.826-8.833-2.911-4.442-2.085-8.353-3.513-8.69-3.175-.34.338-.98 4.228-1.426 8.644-.445 4.415-1.092 8.486-1.438 9.045-.345.559-2.739 1.05-5.319 1.091-2.58.041-6.617.378-8.972.75l-4.28.676 4.071 8.409c2.24 4.625 3.716 8.719 3.281 9.098-.435.379-3.829 2.822-7.54 5.429C3.004 54.043-.018 56.474 0 56.838c.018.364 3.387 2.912 7.486 5.662 4.1 2.75 7.276 5.45 7.06 6-.215.55-1.997 4.487-3.96 8.75-1.962 4.262-3.466 7.758-3.343 7.768 5.861.463 18.077 2.001 18.392 2.315.318.319 1.695 11.245 2.315 18.371.01.113 3.92-1.59 8.69-3.783 4.768-2.192 8.93-3.591 9.25-3.108 5.19 7.876 9.715 14.13 10.24 14.155.364.018 2.795-3.005 5.402-6.718 2.607-3.712 5.042-7.098 5.41-7.522.37-.425 4.463 1.013 9.098 3.195l8.428 3.968.676-4.195c.372-2.308.71-6.345.75-8.971.065-4.173.397-4.897 2.64-5.75 1.41-.536 4.222-.98 6.25-.986 2.026-.006 5.349-.286 7.385-.623l3.7-.612-3.319-6.627c-5.425-10.829-5.535-10.123 2.42-15.558 3.862-2.639 7.229-5.134 7.484-5.546.254-.412-2.901-3.13-7.012-6.041-4.111-2.911-7.474-5.44-7.474-5.619 0-.18 1.745-4.104 3.878-8.72l3.877-8.393-5.127-.616c-2.82-.339-6.725-.621-8.678-.625-4.48-.011-5.948-1.478-5.959-5.959-.004-1.952-.286-5.857-.624-8.677l-.616-5.126-8.273 3.876C71.896 13.255 67.93 15 67.63 15c-.298 0-2.875-3.375-5.727-7.5-2.852-4.125-5.33-7.5-5.509-7.5-.179 0-2.45 3.037-5.049 6.75Z" clip-rule="evenodd"/></svg>
